<svg width="52" height="24" viewBox="0 0 52 24" fill="none" xmlns="http://www.w3.org/2000/svg">
<path d="M0.883602 5.23636V1.20218H8.42033V24H3.91706V5.23636H0.883602ZM28.5187 4.98618H18.3863V10.3338C18.8241 9.79176 19.4496 9.35394 20.2627 9.02036C21.0758 8.66594 21.941 8.48873 22.8583 8.48873C24.5262 8.48873 25.8918 8.85357 26.955 9.58327C28.0183 10.313 28.7897 11.2512 29.2692 12.3978C29.7487 13.5236 29.9885 14.7328 29.9885 16.0255C29.9885 18.423 29.3005 20.3515 27.9245 21.8109C26.5693 23.2703 24.6304 24 22.1078 24C19.731 24 17.8338 23.4058 16.4161 22.2175C14.9984 21.0291 14.1958 19.4759 14.0081 17.5578H18.2612C18.4489 18.3918 18.8658 19.0589 19.5121 19.5593C20.1793 20.0596 21.0236 20.3098 22.0452 20.3098C23.2753 20.3098 24.203 19.9241 24.8285 19.1527C25.4539 18.3813 25.7667 17.3598 25.7667 16.088C25.7667 14.7954 25.4435 13.8155 24.7972 13.1484C24.1718 12.4604 23.244 12.1164 22.0139 12.1164C21.1383 12.1164 20.4086 12.3353 19.8249 12.7731C19.2411 13.2109 18.8241 13.7947 18.5739 14.5244H14.3834V1.13964H28.5187V4.98618ZM36.466 5.76276V10.7914C36.466 11.1417 36.5473 11.3981 36.7099 11.5607C36.8851 11.7108 37.1728 11.7859 37.5731 11.7859H38.7927V14H37.1415C34.9274 14 33.8203 12.9242 33.8203 10.7727V5.76276H32.5819V3.60494H33.8203V1.03433H36.466V3.60494H38.7927V5.76276H36.466ZM46.9859 3.45484C47.774 3.45484 48.4745 3.62996 49.0874 3.98022C49.7004 4.31796 50.1757 4.82458 50.5135 5.50007C50.8637 6.16305 51.0389 6.96364 51.0389 7.90182V14H48.4119V8.25833C48.4119 7.43273 48.2055 6.80102 47.7927 6.3632C47.3799 5.91287 46.817 5.68771 46.104 5.68771C45.3785 5.68771 44.8031 5.91287 44.3778 6.3632C43.965 6.80102 43.7586 7.43273 43.7586 8.25833V14H41.1317V0.114908H43.7586V4.89964C44.0963 4.44931 44.5466 4.09905 45.1095 3.84887C45.6725 3.58618 46.2979 3.45484 46.9859 3.45484Z" fill="url(#paint0_linear_902_1250)"/>
<defs>
<linearGradient id="paint0_linear_902_1250" x1="23.9854" y1="-17.4792" x2="38.0677" y2="51.5593" gradientUnits="userSpaceOnUse">
<stop offset="0.138323" stop-color="#FFFFFE"/>
<stop offset="1" stop-color="#120400"/>
</linearGradient>
</defs>
</svg>
