<svg width="51" height="25" viewBox="0 0 51 25" fill="none" xmlns="http://www.w3.org/2000/svg">
<path d="M0.444681 5.23636V1.20218H7.98141V24H3.47814V5.23636H0.444681ZM24.5772 6.89382C24.3687 6.01818 24.0039 5.36145 23.4827 4.92364C22.9823 4.48582 22.2526 4.26691 21.2936 4.26691C19.855 4.26691 18.7918 4.85066 18.1038 6.01818C17.4366 7.16485 17.0926 9.04121 17.0718 11.6473C17.5721 10.8133 18.3018 10.167 19.2608 9.70836C20.2199 9.22885 21.2623 8.98909 22.3881 8.98909C23.7433 8.98909 24.9421 9.28097 25.9845 9.86473C27.0269 10.4485 27.84 11.3033 28.4238 12.4291C29.0075 13.5341 29.2994 14.8684 29.2994 16.432C29.2994 17.9122 28.9971 19.2361 28.3925 20.4036C27.8087 21.5503 26.9435 22.4468 25.7968 23.0931C24.6502 23.7394 23.2846 24.0625 21.7001 24.0625C19.5319 24.0625 17.8223 23.583 16.5714 22.624C15.3413 21.665 14.4761 20.3307 13.9758 18.6211C13.4962 16.8907 13.2565 14.7641 13.2565 12.2415C13.2565 8.42618 13.9132 5.54909 15.2267 3.61018C16.5401 1.65042 18.6145 0.670543 21.4499 0.670543C23.639 0.670543 25.3382 1.26473 26.5474 2.45309C27.7566 3.64145 28.455 5.1217 28.6427 6.89382H24.5772ZM21.3874 12.5855C20.2824 12.5855 19.3547 12.9086 18.6041 13.5549C17.8536 14.2012 17.4783 15.1394 17.4783 16.3695C17.4783 17.5995 17.8223 18.569 18.5103 19.2778C19.2192 19.9867 20.2095 20.3411 21.4812 20.3411C22.607 20.3411 23.4931 19.9971 24.1394 19.3091C24.8065 18.6211 25.1401 17.6933 25.1401 16.5258C25.1401 15.3166 24.817 14.3576 24.1707 13.6487C23.5452 12.9399 22.6175 12.5855 21.3874 12.5855ZM35.9049 5.76276V10.7914C35.9049 11.1417 35.9862 11.3981 36.1489 11.5607C36.324 11.7108 36.6117 11.7859 37.012 11.7859H38.2316V14H36.5804C34.3663 14 33.2593 12.9242 33.2593 10.7727V5.76276H32.0209V3.60494H33.2593V1.03433H35.9049V3.60494H38.2316V5.76276H35.9049ZM46.4248 3.45484C47.2129 3.45484 47.9134 3.62996 48.5264 3.98022C49.1393 4.31796 49.6146 4.82458 49.9524 5.50007C50.3026 6.16305 50.4778 6.96364 50.4778 7.90182V14H47.8509V8.25833C47.8509 7.43273 47.6445 6.80102 47.2317 6.3632C46.8189 5.91287 46.256 5.68771 45.5429 5.68771C44.8174 5.68771 44.242 5.91287 43.8167 6.3632C43.4039 6.80102 43.1975 7.43273 43.1975 8.25833V14H40.5706V0.114908H43.1975V4.89964C43.5352 4.44931 43.9856 4.09905 44.5485 3.84887C45.1114 3.58618 45.7368 3.45484 46.4248 3.45484Z" fill="url(#paint0_linear_903_1251)"/>
<defs>
<linearGradient id="paint0_linear_903_1251" x1="23.4854" y1="-17.4792" x2="37.5677" y2="51.5593" gradientUnits="userSpaceOnUse">
<stop offset="0.138323" stop-color="#FFFFFE"/>
<stop offset="1" stop-color="#120400"/>
</linearGradient>
</defs>
</svg>
