<svg width="20" height="20" viewBox="0 0 20 20" fill="none" xmlns="http://www.w3.org/2000/svg">
<path d="M5.15201 1.01198C5.98401 0.363981 7.07201 0.00598145 8.15301 0.00598145C8.80001 0.00598145 9.32301 0.227982 9.72001 0.580981C9.82701 0.675982 9.92201 0.778981 10.007 0.884981C10.092 0.778981 10.187 0.675982 10.294 0.580981C10.691 0.227982 11.214 0.00598145 11.861 0.00598145C12.942 0.00598145 14.031 0.363981 14.861 1.01198C15.509 1.51498 16.016 2.20998 16.215 3.04898C16.635 3.11898 17.008 3.33298 17.31 3.61598C17.79 4.06698 18.133 4.71898 18.348 5.38998C18.567 6.07098 18.676 6.83598 18.643 7.57098C18.626 7.94698 18.571 8.33098 18.466 8.69798L18.531 8.72798C18.901 8.90198 19.201 9.17498 19.426 9.53798C19.851 10.223 20.001 11.209 20.001 12.466C20.001 13.911 19.448 14.892 18.738 15.501C18.3682 15.8181 17.9353 16.0533 17.468 16.191C17.2984 16.9724 16.95 17.7039 16.45 18.328C15.727 19.232 14.603 19.996 13.093 19.996C11.883 19.996 10.93 19.326 10.318 18.686C10.2095 18.5716 10.106 18.4525 10.008 18.329C9.90963 18.4522 9.80586 18.5709 9.69701 18.685C9.08501 19.327 8.13201 19.996 6.92201 19.996C5.41101 19.996 4.28701 19.232 3.56501 18.328C3.06429 17.7041 2.71514 16.9726 2.54501 16.191C2.07801 16.0532 1.64551 15.818 1.27601 15.501C0.566008 14.891 0.0140076 13.911 0.0140076 12.466C0.0140076 11.209 0.164008 10.223 0.588008 9.53798C0.812963 9.16504 1.14851 8.87144 1.54801 8.69798C1.44527 8.3305 1.38586 7.95226 1.37101 7.57098C1.33801 6.83598 1.44701 6.07098 1.66601 5.38998C1.88101 4.71998 2.22301 4.06698 2.70401 3.61598C3.00484 3.32276 3.38593 3.12543 3.79901 3.04898C3.99901 2.20898 4.50501 1.51498 5.15201 1.01198ZM6.07401 2.19498C5.52801 2.61998 5.20801 3.18598 5.20801 3.83798C5.20792 3.95676 5.17962 4.07381 5.12544 4.17951C5.07126 4.28521 4.99276 4.37653 4.89638 4.44596C4.80001 4.51538 4.68852 4.56092 4.57111 4.57884C4.45369 4.59675 4.3337 4.58651 4.22101 4.54898C4.08401 4.50298 3.93901 4.51398 3.73101 4.70998C3.49901 4.92698 3.26401 5.31998 3.09401 5.84798C2.92395 6.38283 2.84816 6.94317 2.87001 7.50398C2.89501 8.05998 3.02701 8.52198 3.23501 8.83398C3.26942 8.88567 3.2973 8.94143 3.31801 8.99998H4.40001C5.11997 8.99983 5.81332 9.27217 6.34071 9.76228C6.8681 10.2524 7.19046 10.9239 7.24301 11.642C7.67379 11.8139 8.03144 12.1301 8.25474 12.5367C8.47805 12.9432 8.55312 13.4147 8.46712 13.8704C8.38111 14.3262 8.13937 14.7379 7.78328 15.0351C7.42718 15.3323 6.97887 15.4964 6.51507 15.4995C6.05127 15.5026 5.60082 15.3444 5.24081 15.052C4.88081 14.7595 4.63363 14.3511 4.54158 13.8965C4.44953 13.4419 4.51835 12.9694 4.73623 12.56C4.95412 12.1506 5.30754 11.8296 5.73601 11.652C5.68851 11.3316 5.52745 11.0391 5.2822 10.8276C5.03694 10.6161 4.72385 10.4998 4.40001 10.5H1.77501C1.62501 10.848 1.51401 11.449 1.51401 12.466C1.51401 13.487 1.88501 14.047 2.25301 14.363C2.65601 14.708 3.09901 14.798 3.22701 14.798C3.42592 14.798 3.61669 14.877 3.75734 15.0177C3.89799 15.1583 3.97701 15.3491 3.97701 15.548C3.97701 15.968 4.20901 16.731 4.73701 17.391C5.24501 18.028 5.96901 18.496 6.92201 18.496C7.55901 18.496 8.14501 18.138 8.61201 17.65C8.83801 17.412 9.01401 17.165 9.13001 16.965C9.1739 16.8902 9.21234 16.8123 9.24501 16.732L9.25101 16.718V7.24998H8.35501C8.18096 7.68025 7.86268 8.03658 7.45472 8.25792C7.04675 8.47926 6.57451 8.55181 6.11892 8.46315C5.66333 8.3745 5.25276 8.13014 4.95757 7.77197C4.66238 7.4138 4.50096 6.96412 4.50096 6.49998C4.50096 6.03585 4.66238 5.58616 4.95757 5.22799C5.25276 4.86982 5.66333 4.62547 6.11892 4.53681C6.57451 4.44815 7.04675 4.52071 7.45472 4.74204C7.86268 4.96338 8.18096 5.31972 8.35501 5.74998H9.25101V3.21198L9.24801 3.15498C9.2309 2.847 9.1703 2.54298 9.06801 2.25198C8.97801 2.01198 8.86101 1.82498 8.72301 1.70198C8.60001 1.59198 8.43001 1.50598 8.15301 1.50598C7.38701 1.50598 6.62801 1.76398 6.07301 2.19598L6.07401 2.19498ZM10.764 15V16.718L10.769 16.732C10.789 16.785 10.827 16.864 10.885 16.965C11 17.165 11.176 17.412 11.403 17.65C11.869 18.138 12.456 18.496 13.093 18.496C14.045 18.496 14.769 18.028 15.278 17.391C15.805 16.731 16.038 15.967 16.038 15.548C16.038 15.3491 16.117 15.1583 16.2577 15.0177C16.3983 14.877 16.5891 14.798 16.788 14.798C16.916 14.798 17.358 14.708 17.762 14.363C18.129 14.047 18.5 13.487 18.5 12.466C18.5 11.258 18.342 10.636 18.151 10.329C18.0912 10.2228 18.0005 10.1374 17.891 10.084C17.79 10.036 17.638 9.99998 17.403 9.99998C17.2673 9.99997 17.1341 9.96312 17.0176 9.89336C16.9012 9.8236 16.8058 9.72355 16.7418 9.60386C16.6778 9.48418 16.6474 9.34936 16.6539 9.21378C16.6605 9.07819 16.7037 8.94693 16.779 8.83398C16.987 8.52098 17.119 8.05998 17.145 7.50398C17.1665 6.94311 17.0904 6.38278 16.92 5.84798C16.75 5.31998 16.515 4.92798 16.284 4.70998C16.075 4.51398 15.93 4.50298 15.794 4.54898C15.6813 4.58671 15.5612 4.59709 15.4436 4.57928C15.3261 4.56146 15.2144 4.51595 15.1179 4.4465C15.0214 4.37706 14.9428 4.28566 14.8886 4.17986C14.8343 4.07406 14.806 3.95687 14.806 3.83798C14.806 3.18598 14.486 2.61998 13.94 2.19498C13.387 1.76398 12.627 1.50498 11.86 1.50498C11.584 1.50498 11.415 1.59198 11.291 1.70098C11.1344 1.85452 11.0166 2.04302 10.947 2.25098C10.8349 2.55943 10.7731 2.88391 10.764 3.21198V13.5H11.4C11.758 13.5 12.1014 13.3577 12.3546 13.1046C12.6078 12.8514 12.75 12.508 12.75 12.15V10.355C12.3197 10.1809 11.9634 9.86265 11.7421 9.45469C11.5207 9.04673 11.4482 8.57449 11.5368 8.1189C11.6255 7.66331 11.8698 7.25274 12.228 6.95755C12.5862 6.66236 13.0359 6.50093 13.5 6.50093C13.9641 6.50093 14.4138 6.66236 14.772 6.95755C15.1302 7.25274 15.3745 7.66331 15.4632 8.1189C15.5518 8.57449 15.4793 9.04673 15.2579 9.45469C15.0366 9.86265 14.6803 10.1809 14.25 10.355V12.15C14.25 12.9058 13.9497 13.6308 13.4153 14.1652C12.8808 14.6997 12.1559 15 11.4 15H10.764ZM6.50001 5.99998C6.3674 5.99998 6.24022 6.05266 6.14645 6.14643C6.05269 6.2402 6.00001 6.36737 6.00001 6.49998C6.00001 6.63259 6.05269 6.75977 6.14645 6.85354C6.24022 6.9473 6.3674 6.99998 6.50001 6.99998C6.63262 6.99998 6.75979 6.9473 6.85356 6.85354C6.94733 6.75977 7.00001 6.63259 7.00001 6.49998C7.00001 6.36737 6.94733 6.2402 6.85356 6.14643C6.75979 6.05266 6.63262 5.99998 6.50001 5.99998ZM6.00001 13.5C6.00001 13.6326 6.05269 13.7598 6.14645 13.8535C6.24022 13.9473 6.3674 14 6.50001 14C6.63262 14 6.75979 13.9473 6.85356 13.8535C6.94733 13.7598 7.00001 13.6326 7.00001 13.5C7.00001 13.3674 6.94733 13.2402 6.85356 13.1464C6.75979 13.0527 6.63262 13 6.50001 13C6.3674 13 6.24022 13.0527 6.14645 13.1464C6.05269 13.2402 6.00001 13.3674 6.00001 13.5ZM13 8.49998C13 8.63259 13.0527 8.75977 13.1465 8.85353C13.2402 8.9473 13.3674 8.99998 13.5 8.99998C13.6326 8.99998 13.7598 8.9473 13.8536 8.85353C13.9473 8.75977 14 8.63259 14 8.49998C14 8.36737 13.9473 8.2402 13.8536 8.14643C13.7598 8.05266 13.6326 7.99998 13.5 7.99998C13.3674 7.99998 13.2402 8.05266 13.1465 8.14643C13.0527 8.2402 13 8.36737 13 8.49998Z" fill="#898989"/>
</svg>
