<svg width="29" height="28" viewBox="0 0 29 28" fill="none" xmlns="http://www.w3.org/2000/svg">
<path d="M12.675 27.4469L0.507026 15.279C0.322663 15.0946 0.191766 14.8949 0.114333 14.6798C0.0369009 14.4647 -0.00120028 14.2343 2.88069e-05 13.9884C2.88069e-05 13.7426 0.0387453 13.5122 0.116178 13.2971C0.19361 13.082 0.323893 12.8823 0.507026 12.6979L12.675 0.529974C13.013 0.191976 13.4358 0.0156027 13.9434 0.000853643C14.451 -0.0138954 14.8885 0.162478 15.256 0.529974C15.6248 0.867972 15.8171 1.29078 15.8331 1.79839C15.8491 2.306 15.6721 2.74355 15.3021 3.11105L6.26836 12.1448H26.8709C27.3932 12.1448 27.8314 12.3218 28.1854 12.6758C28.5394 13.0298 28.7157 13.4673 28.7145 13.9884C28.7145 14.5108 28.5381 14.949 28.1854 15.3029C27.8326 15.6569 27.3945 15.8333 26.8709 15.8321H6.26836L15.3021 24.8658C15.6401 25.2038 15.8171 25.634 15.8331 26.1564C15.8491 26.6787 15.6721 27.1089 15.3021 27.4469C14.9641 27.8156 14.5339 28 14.0116 28C13.4892 28 13.0437 27.8156 12.675 27.4469Z" fill="#898989"/>
</svg>
