<svg width="29" height="29" viewBox="0 0 29 29" fill="none" xmlns="http://www.w3.org/2000/svg">
<path d="M12.675 27.9469L0.507026 15.779C0.322663 15.5946 0.191766 15.3949 0.114333 15.1798C0.0369009 14.9647 -0.00120028 14.7343 2.88069e-05 14.4884C2.88069e-05 14.2426 0.0387453 14.0122 0.116178 13.7971C0.19361 13.582 0.323893 13.3823 0.507026 13.1979L12.675 1.02997C13.013 0.691976 13.4358 0.515603 13.9434 0.500854C14.451 0.486105 14.8885 0.662478 15.256 1.02997C15.6248 1.36797 15.8171 1.79078 15.8331 2.29839C15.8491 2.806 15.6721 3.24355 15.3021 3.61105L6.26836 12.6448H26.8709C27.3932 12.6448 27.8314 12.8218 28.1854 13.1758C28.5394 13.5298 28.7157 13.9673 28.7145 14.4884C28.7145 15.0108 28.5381 15.449 28.1854 15.8029C27.8326 16.1569 27.3945 16.3333 26.8709 16.3321H6.26836L15.3021 25.3658C15.6401 25.7038 15.8171 26.134 15.8331 26.6564C15.8491 27.1787 15.6721 27.6089 15.3021 27.9469C14.9641 28.3156 14.5339 28.5 14.0116 28.5C13.4892 28.5 13.0437 28.3156 12.675 27.9469Z" fill="#898989"/>
</svg>
