<svg width="15" height="11" viewBox="0 0 15 11" fill="none" xmlns="http://www.w3.org/2000/svg">
<path d="M14.3333 6.66663V6.33329C14.3333 5.89127 14.1577 5.46734 13.8452 5.15478C13.5326 4.84222 13.1087 4.66663 12.6667 4.66663C12.2246 4.66663 11.8007 4.84222 11.4882 5.15478C11.1756 5.46734 11 5.89127 11 6.33329V6.66663C10.8232 6.66663 10.6536 6.73686 10.5286 6.86189C10.4036 6.98691 10.3333 7.15648 10.3333 7.33329V9.99996C10.3333 10.1768 10.4036 10.3463 10.5286 10.4714C10.6536 10.5964 10.8232 10.6666 11 10.6666H14.3333C14.5102 10.6666 14.6797 10.5964 14.8047 10.4714C14.9298 10.3463 15 10.1768 15 9.99996V7.33329C15 7.15648 14.9298 6.98691 14.8047 6.86189C14.6797 6.73686 14.5102 6.66663 14.3333 6.66663ZM13.6667 6.66663H11.6667V6.33329C11.6667 6.06808 11.772 5.81372 11.9596 5.62619C12.1471 5.43865 12.4015 5.33329 12.6667 5.33329C12.9319 5.33329 13.1862 5.43865 13.3738 5.62619C13.5613 5.81372 13.6667 6.06808 13.6667 6.33329M3.66668 1.93329H6.33334V0.666626H3.66668C2.78262 0.666626 1.93478 1.01782 1.30965 1.64294C0.684533 2.26806 0.333344 3.1159 0.333344 3.99996C0.333344 4.88401 0.684533 5.73186 1.30965 6.35698C1.93478 6.9821 2.78262 7.33329 3.66668 7.33329H6.33334V6.06663H3.66668C3.11856 6.06663 2.5929 5.84889 2.20532 5.46131C1.81775 5.07374 1.60001 4.54807 1.60001 3.99996C1.60001 3.45185 1.81775 2.92618 2.20532 2.53861C2.5929 2.15103 3.11856 1.93329 3.66668 1.93329ZM4.33334 3.33329V4.66663H9.66668V3.33329M7.66668 6.06663V7.33329H9.00001V6.06663M10.3333 0.666626H7.66668V1.93329H10.3333C10.7656 1.93149 11.1875 2.06572 11.5393 2.31698C11.891 2.56824 12.1548 2.9238 12.2933 3.33329C12.4177 3.32648 12.5423 3.32648 12.6667 3.33329H13.6C13.4463 2.58038 13.0372 1.9037 12.4419 1.41776C11.8467 0.931815 11.1018 0.666469 10.3333 0.666626Z" fill="#898989"/>
</svg>
