<svg width="34" height="34" viewBox="0 0 34 34" fill="none" xmlns="http://www.w3.org/2000/svg">
<path d="M1.70001 8.5C1.21834 8.5 0.814305 8.3368 0.487906 8.0104C0.161506 7.684 -0.00112745 7.28054 5.88235e-06 6.8V1.70001C5.88235e-06 1.21834 0.163206 0.814305 0.489606 0.487906C0.816006 0.161506 1.21947 -0.00112745 1.70001 5.88235e-06H6.8C7.28167 5.88235e-06 7.6857 0.163206 8.0121 0.489606C8.3385 0.816006 8.50114 1.21947 8.5 1.70001C8.5 2.18167 8.3368 2.58571 8.0104 2.9121C7.684 3.2385 7.28054 3.40114 6.8 3.4H3.4V6.8C3.4 7.28167 3.2368 7.6857 2.9104 8.0121C2.584 8.3385 2.18054 8.50114 1.70001 8.5ZM1.70001 34C1.21834 34 0.814305 33.8368 0.487906 33.5104C0.161506 33.184 -0.00112745 32.7805 5.88235e-06 32.3V27.2C5.88235e-06 26.7183 0.163206 26.3143 0.489606 25.9879C0.816006 25.6615 1.21947 25.4989 1.70001 25.5C2.18167 25.5 2.58571 25.6632 2.9121 25.9896C3.2385 26.316 3.40114 26.7195 3.4 27.2V30.6H6.8C7.28167 30.6 7.6857 30.7632 8.0121 31.0896C8.3385 31.416 8.50114 31.8195 8.5 32.3C8.5 32.7817 8.3368 33.1857 8.0104 33.5121C7.684 33.8385 7.28054 34.0011 6.8 34H1.70001ZM27.2 34C26.7183 34 26.3143 33.8368 25.9879 33.5104C25.6615 33.184 25.4989 32.7805 25.5 32.3C25.5 31.8183 25.6632 31.4143 25.9896 31.0879C26.316 30.7615 26.7195 30.5989 27.2 30.6H30.6V27.2C30.6 26.7183 30.7632 26.3143 31.0896 25.9879C31.416 25.6615 31.8195 25.4989 32.3 25.5C32.7817 25.5 33.1857 25.6632 33.5121 25.9896C33.8385 26.316 34.0011 26.7195 34 27.2V32.3C34 32.7817 33.8368 33.1857 33.5104 33.5121C33.184 33.8385 32.7805 34.0011 32.3 34H27.2ZM32.3 8.5C31.8183 8.5 31.4143 8.3368 31.0879 8.0104C30.7615 7.684 30.5989 7.28054 30.6 6.8V3.4H27.2C26.7183 3.4 26.3143 3.2368 25.9879 2.9104C25.6615 2.584 25.4989 2.18054 25.5 1.70001C25.5 1.21834 25.6632 0.814305 25.9896 0.487906C26.316 0.161506 26.7195 -0.00112745 27.2 5.88235e-06H32.3C32.7817 5.88235e-06 33.1857 0.163206 33.5121 0.489606C33.8385 0.816006 34.0011 1.21947 34 1.70001V6.8C34 7.28167 33.8368 7.6857 33.5104 8.0121C33.184 8.3385 32.7805 8.50114 32.3 8.5ZM26.35 26.35H28.9V28.9H26.35V26.35ZM26.35 21.25H28.9V23.8H26.35V21.25ZM23.8 23.8H26.35V26.35H23.8V23.8ZM21.25 26.35H23.8V28.9H21.25V26.35ZM18.7 23.8H21.25V26.35H18.7V23.8ZM23.8 18.7H26.35V21.25H23.8V18.7ZM21.25 21.25H23.8V23.8H21.25V21.25ZM18.7 18.7H21.25V21.25H18.7V18.7ZM28.9 5.1V15.3H18.7V5.1H28.9ZM15.3 18.7V28.9H5.1V18.7H15.3ZM15.3 5.1V15.3H5.1V5.1H15.3ZM12.75 26.35V21.25H7.65V26.35H12.75ZM12.75 12.75V7.65H7.65V12.75H12.75ZM26.35 12.75V7.65H21.25V12.75H26.35Z" fill="#898989"/>
</svg>
