<svg width="28" height="34" viewBox="0 0 28 34" fill="none" xmlns="http://www.w3.org/2000/svg">
<path d="M27.2 18.7V30.6C27.2 31.5017 26.8418 32.3665 26.2042 33.0042C25.5665 33.6418 24.7017 34 23.8 34C22.8983 34 22.0335 33.6418 21.3958 33.0042C20.7582 32.3665 20.4 31.5017 20.4 30.6V22.1H17V5.1C17 3.7474 17.5373 2.45019 18.4938 1.49376C19.4502 0.53732 20.7474 0 22.1 0L27.2 0V18.7ZM3.4 17C2.49826 17 1.63346 16.6418 0.995837 16.0042C0.358213 15.3665 0 14.5017 0 13.6V1.7C0 1.24913 0.179107 0.81673 0.497918 0.497919C0.81673 0.179107 1.24913 0 1.7 0C2.15087 0 2.58327 0.179107 2.90208 0.497919C3.22089 0.81673 3.4 1.24913 3.4 1.7V8.5H5.1V1.7C5.1 1.24913 5.27911 0.81673 5.59792 0.497919C5.91673 0.179107 6.34913 0 6.8 0C7.25087 0 7.68327 0.179107 8.00208 0.497919C8.32089 0.81673 8.5 1.24913 8.5 1.7V8.5H10.2V1.7C10.2 1.24913 10.3791 0.81673 10.6979 0.497919C11.0167 0.179107 11.4491 0 11.9 0C12.3509 0 12.7833 0.179107 13.1021 0.497919C13.4209 0.81673 13.6 1.24913 13.6 1.7V13.6C13.6 14.5017 13.2418 15.3665 12.6042 16.0042C11.9665 16.6418 11.1017 17 10.2 17V30.6C10.2 31.5017 9.84179 32.3665 9.20416 33.0042C8.56654 33.6418 7.70174 34 6.8 34C5.89826 34 5.03346 33.6418 4.39584 33.0042C3.75821 32.3665 3.4 31.5017 3.4 30.6V17Z" fill="#898989"/>
</svg>
