<svg width="29" height="30" viewBox="0 0 29 30" fill="none" xmlns="http://www.w3.org/2000/svg">
<path d="M14.4275 23.7C14.935 23.7 15.3642 23.5245 15.7151 23.1736C16.066 22.8227 16.241 22.394 16.24 21.8875C16.24 21.38 16.065 20.9508 15.7151 20.5999C15.3652 20.249 14.936 20.074 14.4275 20.075C13.92 20.075 13.4913 20.2504 13.1413 20.6013C12.7914 20.9522 12.616 21.381 12.615 21.8875C12.615 22.395 12.7904 22.8242 13.1413 23.1751C13.4922 23.526 13.921 23.701 14.4275 23.7ZM13.1225 18.1175H15.805C15.805 17.32 15.8959 16.6917 16.0776 16.2325C16.2593 15.7733 16.7726 15.145 17.6175 14.3475C18.2458 13.7192 18.7412 13.1208 19.1037 12.5524C19.4662 11.984 19.6475 11.3015 19.6475 10.505C19.6475 9.15166 19.1521 8.1125 18.1612 7.3875C17.1704 6.6625 15.9983 6.3 14.645 6.3C13.2675 6.3 12.1495 6.6625 11.2911 7.3875C10.4327 8.1125 9.83487 8.9825 9.4975 9.9975L11.89 10.94C12.0108 10.505 12.2829 10.0337 12.7063 9.52625C13.1297 9.01875 13.776 8.765 14.645 8.765C15.4183 8.765 15.9983 8.9767 16.385 9.4001C16.7717 9.8235 16.965 10.2885 16.965 10.795C16.965 11.2783 16.82 11.7317 16.53 12.1551C16.24 12.5785 15.8775 12.971 15.4425 13.3325C14.3792 14.275 13.7267 14.9879 13.485 15.4712C13.2433 15.9546 13.1225 16.8367 13.1225 18.1175ZM14.5 29.5C12.4942 29.5 10.6092 29.1191 8.845 28.3574C7.08083 27.5957 5.54625 26.5628 4.24125 25.2587C2.93625 23.9537 1.90337 22.4192 1.1426 20.655C0.381833 18.8908 0.000966667 17.0058 0 15C0 12.9942 0.380867 11.1092 1.1426 9.345C1.90433 7.58083 2.93722 6.04625 4.24125 4.74125C5.54625 3.43625 7.08083 2.40337 8.845 1.6426C10.6092 0.881833 12.4942 0.500967 14.5 0.5C16.5058 0.5 18.3908 0.880867 20.155 1.6426C21.9192 2.40433 23.4537 3.43722 24.7587 4.74125C26.0637 6.04625 27.0971 7.58083 27.8588 9.345C28.6206 11.1092 29.001 12.9942 29 15C29 17.0058 28.6191 18.8908 27.8574 20.655C27.0957 22.4192 26.0628 23.9537 24.7587 25.2587C23.4537 26.5637 21.9192 27.5971 20.155 28.3588C18.3908 29.1206 16.5058 29.501 14.5 29.5Z" fill="#898989"/>
</svg>
