<svg width="25" height="26" viewBox="0 0 25 26" fill="none" xmlns="http://www.w3.org/2000/svg">
<path d="M24.0859 6.51538C24.3464 5.58689 24.4182 4.6156 24.2969 3.65891C24.1757 2.70221 23.864 1.77951 23.3801 0.945341C23.2608 0.738728 23.0893 0.567148 22.8827 0.44784C22.6761 0.328533 22.4417 0.265699 22.2031 0.265654C21.1152 0.262591 20.0406 0.505546 19.0597 0.976348C18.0789 1.44715 17.2172 2.13361 16.5391 2.9844H14.2734C13.5953 2.13361 12.7336 1.44715 11.7528 0.976348C10.7719 0.505546 9.69735 0.262591 8.60938 0.265654C8.3708 0.265699 8.13644 0.328533 7.92984 0.44784C7.72323 0.567148 7.55167 0.738728 7.43238 0.945341C6.94853 1.77951 6.63678 2.70221 6.51556 3.65891C6.39435 4.6156 6.46612 5.58689 6.72664 6.51538C6.18481 7.51916 5.89773 8.64062 5.89062 9.78128V10.6875C5.89276 12.209 6.40443 13.6858 7.344 14.8825C8.28357 16.0791 9.59689 16.9265 11.0744 17.2896C10.6459 18.0387 10.421 18.887 10.4219 19.75V20.2032H8.60938C8.00849 20.2032 7.43222 19.9645 7.00734 19.5396C6.58245 19.1147 6.34375 18.5384 6.34375 17.9375C6.34225 16.6161 5.81663 15.3491 4.8822 14.4147C3.94778 13.4803 2.68085 12.9547 1.35938 12.9532C0.998846 12.9532 0.653084 13.0964 0.398152 13.3513C0.143219 13.6062 0 13.952 0 14.3125C0 14.6731 0.143219 15.0188 0.398152 15.2738C0.653084 15.5287 0.998846 15.6719 1.35938 15.6719C1.96026 15.6719 2.53653 15.9106 2.96141 16.3355C3.3863 16.7604 3.625 17.3366 3.625 17.9375C3.6265 19.259 4.15212 20.5259 5.08655 21.4604C6.02097 22.3948 7.2879 22.9204 8.60938 22.9219H10.4219V24.2813C10.4219 24.6418 10.5651 24.9876 10.82 25.2425C11.075 25.4974 11.4207 25.6407 11.7812 25.6407C12.1418 25.6407 12.4875 25.4974 12.7425 25.2425C12.9974 24.9876 13.1406 24.6418 13.1406 24.2813V19.75C13.1406 19.1491 13.3793 18.5729 13.8042 18.148C14.2291 17.7231 14.8054 17.4844 15.4062 17.4844C16.0071 17.4844 16.5834 17.7231 17.0083 18.148C17.4332 18.5729 17.6719 19.1491 17.6719 19.75V24.2813C17.6719 24.6418 17.8151 24.9876 18.07 25.2425C18.325 25.4974 18.6707 25.6407 19.0312 25.6407C19.3918 25.6407 19.7375 25.4974 19.9925 25.2425C20.2474 24.9876 20.3906 24.6418 20.3906 24.2813V19.75C20.3915 18.887 20.1666 18.0387 19.7381 17.2896C21.2156 16.9265 22.5289 16.0791 23.4685 14.8825C24.4081 13.6858 24.9197 12.209 24.9219 10.6875V9.78128C24.9148 8.64062 24.6277 7.51916 24.0859 6.51538ZM22.2031 10.6875C22.2031 11.7691 21.7735 12.8064 21.0087 13.5712C20.2439 14.336 19.2066 14.7657 18.125 14.7657H12.6875C11.6059 14.7657 10.5686 14.336 9.80383 13.5712C9.03903 12.8064 8.60938 11.7691 8.60938 10.6875V9.78128C8.62099 8.97121 8.86175 8.18099 9.30379 7.50206C9.4447 7.31963 9.53536 7.10348 9.56677 6.87512C9.59817 6.64675 9.56921 6.41415 9.48277 6.20046C9.09283 5.1928 9.07676 4.07879 9.43746 3.0603C10.0479 3.17277 10.6287 3.40987 11.1434 3.7568C11.6582 4.10374 12.0959 4.55306 12.4292 5.07671C12.5521 5.26868 12.7213 5.42666 12.9212 5.53613C13.1212 5.6456 13.3454 5.70303 13.5734 5.70315H17.238C17.4661 5.70322 17.6906 5.64588 17.8908 5.5364C18.0909 5.42692 18.2603 5.26884 18.3833 5.07671C18.7165 4.55292 19.1541 4.1035 19.6689 3.75655C20.1837 3.4096 20.7645 3.17257 21.375 3.0603C21.7357 4.07879 21.7197 5.1928 21.3297 6.20046C21.2468 6.41576 21.22 6.64862 21.2519 6.87712C21.2838 7.10563 21.3734 7.32225 21.5121 7.50659C21.9522 8.18453 22.1918 8.97307 22.2031 9.78128V10.6875Z" fill="#898989"/>
</svg>
