<svg width="38" height="43" viewBox="0 0 38 43" fill="none" xmlns="http://www.w3.org/2000/svg">
<path d="M31.0414 8.3832C29.0222 3.74023 24.3928 0.5 19 0.5C13.6073 0.5 8.97788 3.74023 6.95867 8.3832C5.61254 8.49805 4.55368 9.62187 4.55368 11V16.25C4.55368 17.6281 5.61254 18.752 6.95867 18.8668C8.97788 23.5098 13.6073 26.75 19 26.75C24.3928 26.75 29.0222 23.5098 31.0414 18.8668C32.3875 18.752 33.4464 17.6281 33.4464 16.25V11C33.4464 9.62187 32.3875 8.49805 31.0414 8.3832ZM28.1932 12.3125V13.625C28.1932 17.9727 24.6637 21.5 20.3133 21.5H17.6867C13.3364 21.5 9.8069 17.9727 9.8069 13.625V12.3125C9.8069 10.1387 11.5717 8.375 13.7468 8.375H24.2533C26.4284 8.375 28.1932 10.1387 28.1932 12.3125ZM16.1518 13.8465L15.6593 12.1074C15.5854 11.8367 15.3392 11.6562 15.0601 11.6562C14.781 11.6562 14.5348 11.8367 14.4609 12.1074L13.9684 13.8465L12.2283 14.3387C11.9574 14.4125 11.7769 14.6586 11.7769 14.9375C11.7769 15.2164 11.9574 15.4625 12.2283 15.5363L13.9684 16.0285L14.4609 17.7676C14.5348 18.0383 14.781 18.2188 15.0601 18.2188C15.3392 18.2188 15.5854 18.0383 15.6593 17.7676L16.1518 16.0285L17.8919 15.5363C18.1628 15.4625 18.3434 15.2164 18.3434 14.9375C18.3434 14.6586 18.1628 14.4125 17.8919 14.3387L16.1518 13.8465ZM9.86436 26.4629C4.44698 28.6039 0.61377 33.8867 0.61377 40.0637C0.61377 41.409 1.70545 42.5 3.05159 42.5H11.1202V37.25C11.1202 35.798 12.294 34.625 13.7468 34.625H24.2533C25.7061 34.625 26.8799 35.798 26.8799 37.25V42.5H34.9485C36.2946 42.5 37.3863 41.409 37.3863 40.0637C37.3863 33.8867 33.5531 28.6039 28.1357 26.4629C25.5583 28.2922 22.4064 29.375 19 29.375C15.5937 29.375 12.4417 28.2922 9.86436 26.4629ZM15.0601 37.25C14.3378 37.25 13.7468 37.8406 13.7468 38.5625V42.5H16.3734V38.5625C16.3734 37.8406 15.7824 37.25 15.0601 37.25ZM22.9399 39.875C23.2883 39.875 23.6223 39.7367 23.8686 39.4906C24.1149 39.2444 24.2533 38.9106 24.2533 38.5625C24.2533 38.2144 24.1149 37.8806 23.8686 37.6344C23.6223 37.3883 23.2883 37.25 22.9399 37.25C22.5916 37.25 22.2576 37.3883 22.0113 37.6344C21.765 37.8806 21.6266 38.2144 21.6266 38.5625C21.6266 38.9106 21.765 39.2444 22.0113 39.4906C22.2576 39.7367 22.5916 39.875 22.9399 39.875Z" fill="#6B6B6B"/>
</svg>
