<svg width="37" height="43" viewBox="0 0 37 43" fill="none" xmlns="http://www.w3.org/2000/svg">
<path d="M30.5414 8.3832C28.5222 3.74023 23.8928 0.5 18.5 0.5C13.1073 0.5 8.47788 3.74023 6.45867 8.3832C5.11254 8.49805 4.05368 9.62187 4.05368 11V16.25C4.05368 17.6281 5.11254 18.752 6.45867 18.8668C8.47788 23.5098 13.1073 26.75 18.5 26.75C23.8928 26.75 28.5222 23.5098 30.5414 18.8668C31.8875 18.752 32.9464 17.6281 32.9464 16.25V11C32.9464 9.62187 31.8875 8.49805 30.5414 8.3832ZM27.6932 12.3125V13.625C27.6932 17.9727 24.1637 21.5 19.8133 21.5H17.1867C12.8364 21.5 9.3069 17.9727 9.3069 13.625V12.3125C9.3069 10.1387 11.0717 8.375 13.2468 8.375H23.7533C25.9284 8.375 27.6932 10.1387 27.6932 12.3125ZM15.6518 13.8465L15.1593 12.1074C15.0854 11.8367 14.8392 11.6562 14.5601 11.6562C14.281 11.6562 14.0348 11.8367 13.9609 12.1074L13.4684 13.8465L11.7283 14.3387C11.4574 14.4125 11.2769 14.6586 11.2769 14.9375C11.2769 15.2164 11.4574 15.4625 11.7283 15.5363L13.4684 16.0285L13.9609 17.7676C14.0348 18.0383 14.281 18.2188 14.5601 18.2188C14.8392 18.2188 15.0854 18.0383 15.1593 17.7676L15.6518 16.0285L17.3919 15.5363C17.6628 15.4625 17.8434 15.2164 17.8434 14.9375C17.8434 14.6586 17.6628 14.4125 17.3919 14.3387L15.6518 13.8465ZM9.36436 26.4629C3.94698 28.6039 0.11377 33.8867 0.11377 40.0637C0.11377 41.409 1.20545 42.5 2.55159 42.5H10.6202V37.25C10.6202 35.798 11.794 34.625 13.2468 34.625H23.7533C25.2061 34.625 26.3799 35.798 26.3799 37.25V42.5H34.4485C35.7946 42.5 36.8863 41.409 36.8863 40.0637C36.8863 33.8867 33.0531 28.6039 27.6357 26.4629C25.0583 28.2922 21.9064 29.375 18.5 29.375C15.0937 29.375 11.9417 28.2922 9.36436 26.4629ZM14.5601 37.25C13.8378 37.25 13.2468 37.8406 13.2468 38.5625V42.5H15.8734V38.5625C15.8734 37.8406 15.2824 37.25 14.5601 37.25ZM22.4399 39.875C22.7883 39.875 23.1223 39.7367 23.3686 39.4906C23.6149 39.2444 23.7533 38.9106 23.7533 38.5625C23.7533 38.2144 23.6149 37.8806 23.3686 37.6344C23.1223 37.3883 22.7883 37.25 22.4399 37.25C22.0916 37.25 21.7576 37.3883 21.5113 37.6344C21.265 37.8806 21.1266 38.2144 21.1266 38.5625C21.1266 38.9106 21.265 39.2444 21.5113 39.4906C21.7576 39.7367 22.0916 39.875 22.4399 39.875Z" fill="#6B6B6B"/>
</svg>
