<svg width="40" height="40" viewBox="0 0 40 40" fill="none" xmlns="http://www.w3.org/2000/svg">
<path fill-rule="evenodd" clip-rule="evenodd" d="M27.9521 20C27.9521 19.6022 27.7998 19.2206 27.5287 18.9393C27.2576 18.658 26.8898 18.5 26.5064 18.5H5.35418L9.13432 15.14C9.27862 15.0118 9.39716 14.8554 9.4832 14.6797C9.56923 14.504 9.62107 14.3124 9.63574 14.116C9.65042 13.9195 9.62766 13.7219 9.56874 13.5345C9.50983 13.3472 9.41593 13.1737 9.29239 13.024C9.16886 12.8743 9.01811 12.7513 8.84876 12.662C8.67942 12.5728 8.49478 12.519 8.3054 12.5038C8.11602 12.4885 7.9256 12.5121 7.74501 12.5733C7.56443 12.6344 7.39722 12.7318 7.25293 12.86L0.506122 18.86C0.347409 19.0008 0.219983 19.1756 0.132612 19.3724C0.0452416 19.5692 0 19.7833 0 20C0 20.2167 0.0452416 20.4308 0.132612 20.6276C0.219983 20.8244 0.347409 20.9992 0.506122 21.14L7.25293 27.14C7.54434 27.3988 7.92292 27.527 8.3054 27.4962C8.68787 27.4655 9.0429 27.2783 9.29239 26.976C9.54188 26.6736 9.66539 26.2809 9.63574 25.884C9.6061 25.4872 9.42574 25.1188 9.13432 24.86L5.35611 21.5H26.5064C26.8898 21.5 27.2576 21.342 27.5287 21.0607C27.7998 20.7793 27.9521 20.3978 27.9521 20Z" fill="#6B6B6B"/>
<path d="M14.9404 12C14.9404 13.404 14.9404 14.106 15.2662 14.612C15.4065 14.8296 15.5866 15.0164 15.7963 15.162C16.284 15.5 16.9606 15.5 18.3138 15.5H26.5064C27.6567 15.5 28.7599 15.9741 29.5733 16.818C30.3867 17.6619 30.8436 18.8065 30.8436 20C30.8436 21.1935 30.3867 22.3381 29.5733 23.182C28.7599 24.0259 27.6567 24.5 26.5064 24.5H18.3138C16.9606 24.5 16.284 24.5 15.7963 24.836C15.5864 24.9822 15.4063 25.1697 15.2662 25.388C14.9404 25.894 14.9404 26.596 14.9404 28C14.9404 33.656 14.9404 36.486 16.6348 38.242C18.3273 40 21.053 40 26.5045 40H28.4321C33.8874 40 36.6112 40 38.3056 38.242C40 36.486 40 33.656 40 28V12C40 6.344 40 3.514 38.3056 1.758C36.6112 -1.19209e-07 33.8855 0 28.434 0H26.5064C21.053 0 18.3273 -1.19209e-07 16.6348 1.758C14.9404 3.514 14.9404 6.344 14.9404 12Z" fill="#6B6B6B"/>
</svg>
