<svg width="34" height="30" viewBox="0 0 34 30" fill="none" xmlns="http://www.w3.org/2000/svg">
<path d="M1.66667 11.6667C1.19445 11.6667 0.798339 11.5067 0.478339 11.1867C0.158339 10.8667 -0.00110534 10.4711 5.76702e-06 10C5.76702e-06 6.80556 1.50723 4.34 4.52167 2.60333C7.53612 0.866667 11.5845 -0.00111005 16.6667 1.06564e-06C21.75 1.06564e-06 25.7989 0.868335 28.8133 2.605C31.8278 4.34167 33.3344 6.80667 33.3333 10C33.3333 10.4722 33.1733 10.8683 32.8533 11.1883C32.5333 11.5083 32.1378 11.6678 31.6667 11.6667H1.66667ZM5.76702e-06 17.5C5.76702e-06 17.1111 0.138895 16.7289 0.416672 16.3533C0.69445 15.9778 1.08334 15.6656 1.58334 15.4167C2.08334 15.1667 2.61112 14.8956 3.16667 14.6033C3.72223 14.3111 4.52778 14.1656 5.58334 14.1667C7.1389 14.1667 8.19445 14.4444 8.75001 15C9.30556 15.5556 10.0833 15.8333 11.0833 15.8333C12.0833 15.8333 12.875 15.5556 13.4583 15C14.0417 14.4444 15.1111 14.1667 16.6667 14.1667C18.2222 14.1667 19.2917 14.4444 19.875 15C20.4583 15.5556 21.25 15.8333 22.25 15.8333C23.25 15.8333 24.0278 15.5556 24.5833 15C25.1389 14.4444 26.1945 14.1667 27.75 14.1667C28.7778 14.1667 29.5833 14.3056 30.1667 14.5833C30.75 14.8611 31.2778 15.125 31.75 15.375C32.2222 15.625 32.6045 15.9378 32.8967 16.3133C33.1889 16.6889 33.3344 17.0844 33.3333 17.5C33.3333 17.9722 33.1317 18.3472 32.7283 18.625C32.325 18.9028 31.9156 18.9861 31.5 18.875C30.6667 18.6528 30.0622 18.3683 29.6867 18.0217C29.3111 17.675 28.7211 17.5011 27.9167 17.5C26.9167 17.5 26.1111 17.7778 25.5 18.3333C24.8889 18.8889 23.8056 19.1667 22.25 19.1667C20.6945 19.1667 19.625 18.8889 19.0417 18.3333C18.4583 17.7778 17.6667 17.5 16.6667 17.5C15.6667 17.5 14.875 17.7778 14.2917 18.3333C13.7083 18.8889 12.6389 19.1667 11.0833 19.1667C9.52778 19.1667 8.47223 18.8889 7.91667 18.3333C7.36112 17.7778 6.58334 17.5 5.58334 17.5C4.77778 17.5 4.16667 17.6739 3.75001 18.0217C3.33334 18.3694 2.69445 18.6539 1.83334 18.875C1.41667 18.9861 1.00667 18.9028 0.603339 18.625C0.200006 18.3472 -0.00110534 17.9722 5.76702e-06 17.5ZM3.33334 30C2.41667 30 1.63167 29.6733 0.978339 29.02C0.325006 28.3667 -0.00110534 27.5822 5.76702e-06 26.6667V25C5.76702e-06 24.0833 0.326673 23.2983 0.980006 22.645C1.63334 21.9917 2.41778 21.6656 3.33334 21.6667H30C30.9167 21.6667 31.7017 21.9933 32.355 22.6467C33.0083 23.3 33.3344 24.0844 33.3333 25V26.6667C33.3333 27.5833 33.0067 28.3683 32.3533 29.0217C31.7 29.675 30.9156 30.0011 30 30H3.33334Z" fill="#898989"/>
</svg>
