<svg width="26" height="26" viewBox="0 0 26 26" fill="none" xmlns="http://www.w3.org/2000/svg">
<path d="M13.13 26C11.31 26 9.60397 25.6533 8.0119 24.96C6.41983 24.2667 5.03317 23.3294 3.8519 22.1481C2.67063 20.9677 1.73333 19.581 1.04 17.9881C0.346667 16.3952 0 14.6891 0 12.87C0 9.70667 1.0075 6.91687 3.0225 4.5006C5.0375 2.08433 7.605 0.584133 10.725 0C10.335 2.145 10.4542 4.24147 11.0825 6.2894C11.7108 8.33733 12.7942 10.13 14.3325 11.6675C15.8708 13.2058 17.664 14.2892 19.7119 14.9175C21.7598 15.5458 23.8559 15.665 26 15.275C25.4367 18.395 23.9417 20.9625 21.515 22.9775C19.0883 24.9925 16.2933 26 13.13 26Z" fill="#898989"/>
</svg>
