<svg width="16" height="4" viewBox="0 0 16 4" fill="none" xmlns="http://www.w3.org/2000/svg">
<path d="M2 0.5C1.60218 0.5 1.22064 0.658035 0.93934 0.93934C0.658035 1.22064 0.5 1.60218 0.5 2C0.5 2.39782 0.658035 2.77936 0.93934 3.06066C1.22064 3.34196 1.60218 3.5 2 3.5C2.39782 3.5 2.77936 3.34196 3.06066 3.06066C3.34196 2.77936 3.5 2.39782 3.5 2C3.5 1.60218 3.34196 1.22064 3.06066 0.93934C2.77936 0.658035 2.39782 0.5 2 0.5ZM6.5 2C6.5 1.60218 6.65804 1.22064 6.93934 0.93934C7.22064 0.658035 7.60218 0.5 8 0.5C8.39782 0.5 8.77936 0.658035 9.06066 0.93934C9.34196 1.22064 9.5 1.60218 9.5 2C9.5 2.39782 9.34196 2.77936 9.06066 3.06066C8.77936 3.34196 8.39782 3.5 8 3.5C7.60218 3.5 7.22064 3.34196 6.93934 3.06066C6.65804 2.77936 6.5 2.39782 6.5 2ZM12.5 2C12.5 1.60218 12.658 1.22064 12.9393 0.93934C13.2206 0.658035 13.6022 0.5 14 0.5C14.3978 0.5 14.7794 0.658035 15.0607 0.93934C15.342 1.22064 15.5 1.60218 15.5 2C15.5 2.39782 15.342 2.77936 15.0607 3.06066C14.7794 3.34196 14.3978 3.5 14 3.5C13.6022 3.5 13.2206 3.34196 12.9393 3.06066C12.658 2.77936 12.5 2.39782 12.5 2Z" fill="#898989"/>
</svg>
