<svg width="23" height="23" viewBox="0 0 23 23" fill="none" xmlns="http://www.w3.org/2000/svg">
<path d="M20.3047 11.5H19.0469C18.948 11.5 18.8672 11.5809 18.8672 11.6797V18.8672H4.13281V4.13281H11.3203C11.4191 4.13281 11.5 4.05195 11.5 3.95312V2.69531C11.5 2.59648 11.4191 2.51562 11.3203 2.51562H3.23438C2.83682 2.51562 2.51562 2.83682 2.51562 3.23438V19.7656C2.51562 20.1632 2.83682 20.4844 3.23438 20.4844H19.7656C20.1632 20.4844 20.4844 20.1632 20.4844 19.7656V11.6797C20.4844 11.5809 20.4035 11.5 20.3047 11.5Z" fill="#898989"/>
<path d="M7.99384 12.0144L7.95116 14.685C7.94892 14.8849 8.11064 15.0488 8.31054 15.0488H8.31952L10.9699 14.9837C11.0148 14.9814 11.0598 14.9635 11.0912 14.932L20.4327 5.61074C20.5023 5.54111 20.5023 5.42656 20.4327 5.35693L17.6408 2.56729C17.6049 2.53135 17.56 2.51562 17.5128 2.51562C17.4656 2.51562 17.4207 2.53359 17.3848 2.56729L8.0455 11.8886C8.01306 11.9225 7.99461 11.9674 7.99384 12.0144ZM9.42011 12.5444L17.5128 4.46973L18.528 5.48271L10.4309 13.5619L9.40439 13.5866L9.42011 12.5444Z" fill="#898989"/>
</svg>
