<svg width="16" height="20" viewBox="0 0 16 20" fill="none" xmlns="http://www.w3.org/2000/svg">
<path d="M2 20C1.45 20 0.979002 19.804 0.587002 19.412C0.195002 19.02 -0.000664969 18.5493 1.69779e-06 18V2C1.69779e-06 1.45 0.196001 0.979002 0.588001 0.587002C0.980001 0.195002 1.45067 -0.000664969 2 1.69779e-06H14C14.55 1.69779e-06 15.021 0.196002 15.413 0.588002C15.805 0.980002 16.0007 1.45067 16 2V18C16 18.55 15.804 19.021 15.412 19.413C15.02 19.805 14.5493 20.0007 14 20H2ZM2 18H14V2H12V9L9.5 7.5L7 9V2H2V18Z" fill="#898989"/>
</svg>
