<svg width="36" height="32" viewBox="0 0 36 32" fill="none" xmlns="http://www.w3.org/2000/svg">
<path d="M4.65 0.5V9.8H1.55V0.5H4.65ZM1.55 31.5V22.2H4.65V31.5H1.55ZM6.2 16C6.2 17.7205 4.8205 19.1 3.1 19.1C2.48688 19.1 1.88753 18.9182 1.37773 18.5776C0.867941 18.2369 0.470607 17.7528 0.235975 17.1863C0.00134317 16.6199 -0.0600472 15.9966 0.059567 15.3952C0.179181 14.7939 0.474428 14.2415 0.90797 13.808C1.34151 13.3744 1.89388 13.0792 2.49522 12.9596C3.09656 12.84 3.71987 12.9013 4.28632 13.136C4.85277 13.3706 5.33693 13.7679 5.67756 14.2777C6.01819 14.7875 6.2 15.3869 6.2 16ZM23.25 3.6C30.101 3.6 35.65 9.149 35.65 16C35.65 22.851 30.101 28.4 23.25 28.4C17.67 28.4 12.958 24.711 11.3925 19.6425L7.75 16L11.3925 12.3575C12.958 7.289 17.67 3.6 23.25 3.6ZM23.25 6.7C18.1195 6.7 13.95 10.8695 13.95 16C13.95 21.1305 18.1195 25.3 23.25 25.3C28.3805 25.3 32.55 21.1305 32.55 16C32.55 10.8695 28.3805 6.7 23.25 6.7ZM21.7 17.55V9.8H24.025V16.31L28.675 19.1L27.404 21.053L21.7 17.55Z" fill="#898989"/>
</svg>
